<?xml version="1.0" encoding="UTF-8" standalone="no"?>
<!DOCTYPE svg PUBLIC "-//W3C//DTD SVG 1.0//EN" "http://www.w3.org/TR/2001/PR-SVG-20010719/DTD/svg10.dtd">
<svg width="41cm" height="23cm" viewBox="238 169 803 452" xmlns="http://www.w3.org/2000/svg" xmlns:xlink="http://www.w3.org/1999/xlink">
  <g>
    <rect style="fill: #1e90ff" x="260" y="200" width="160" height="60"/>
    <rect style="fill: none; fill-opacity:0; stroke-width: 2; stroke: #000000" x="260" y="200" width="160" height="60"/>
    <text font-size="12.7998" style="fill: #000000;text-anchor:middle;font-family:sans-serif;font-style:normal;font-weight:normal" x="340" y="235.7">
      <tspan x="340" y="235.7">kubernetes-api</tspan>
    </text>
  </g>
  <text font-size="12.7998" style="fill: #000000;text-anchor:start;font-family:sans-serif;font-style:normal;font-weight:normal" x="340" y="230">
    <tspan x="340" y="230"></tspan>
  </text>
  <g>
    <rect style="fill: #90ee90" x="560" y="200" width="160" height="60"/>
    <rect style="fill: none; fill-opacity:0; stroke-width: 2; stroke: #000000" x="560" y="200" width="160" height="60"/>
    <text font-size="12.7998" style="fill: #000000;text-anchor:middle;font-family:sans-serif;font-style:normal;font-weight:normal" x="640" y="235.7">
      <tspan x="640" y="235.7">kuryr-controller</tspan>
    </text>
  </g>
  <text font-size="12.7998" style="fill: #000000;text-anchor:start;font-family:sans-serif;font-style:normal;font-weight:normal" x="560" y="500">
    <tspan x="560" y="500"></tspan>
  </text>
  <g>
    <line style="fill: none; fill-opacity:0; stroke-width: 2; stroke: #000000" x1="559.067" y1="230" x2="430.669" y2="230"/>
    <polygon style="fill: #000000" points="423.169,230 433.169,225 430.669,230 433.169,235 "/>
    <polygon style="fill: none; fill-opacity:0; stroke-width: 2; stroke: #000000" points="423.169,230 433.169,225 430.669,230 433.169,235 "/>
  </g>
  <g>
    <rect style="fill: #ffff00" x="240" y="360" width="500" height="260"/>
    <rect style="fill: none; fill-opacity:0; stroke-width: 2; stroke: #000000" x="240" y="360" width="500" height="260"/>
    <text font-size="12.7998" style="fill: #000000;text-anchor:middle;font-family:sans-serif;font-style:normal;font-weight:normal" x="490" y="399.7">
      <tspan x="490" y="399.7"></tspan>
      <tspan x="490" y="415.7"></tspan>
      <tspan x="490" y="431.7"></tspan>
      <tspan x="490" y="447.7"></tspan>
      <tspan x="490" y="463.7"></tspan>
      <tspan x="490" y="479.7"></tspan>
      <tspan x="490" y="495.7"></tspan>
      <tspan x="490" y="511.7"></tspan>
      <tspan x="490" y="527.7"></tspan>
      <tspan x="490" y="543.7"></tspan>
      <tspan x="490" y="559.7"></tspan>
      <tspan x="490" y="575.7"></tspan>
      <tspan x="490" y="591.7">Node</tspan>
    </text>
  </g>
  <g>
    <rect style="fill: #90ee90" x="560" y="400" width="160" height="60"/>
    <rect style="fill: none; fill-opacity:0; stroke-width: 2; stroke: #000000" x="560" y="400" width="160" height="60"/>
    <text font-size="12.7998" style="fill: #000000;text-anchor:middle;font-family:sans-serif;font-style:normal;font-weight:normal" x="640" y="435.7">
      <tspan x="640" y="435.7">kuryr-daemon</tspan>
    </text>
  </g>
  <text font-size="12.7998" style="fill: #000000;text-anchor:start;font-family:sans-serif;font-style:normal;font-weight:normal" x="490" y="490">
    <tspan x="490" y="490"></tspan>
  </text>
  <g>
    <rect style="fill: #1e90ff" x="260" y="400" width="160" height="60"/>
    <rect style="fill: none; fill-opacity:0; stroke-width: 2; stroke: #000000" x="260" y="400" width="160" height="60"/>
    <text font-size="12.7998" style="fill: #000000;text-anchor:middle;font-family:sans-serif;font-style:normal;font-weight:normal" x="340" y="435.7">
      <tspan x="340" y="435.7">kubelet</tspan>
    </text>
  </g>
  <text font-size="12.7998" style="fill: #000000;text-anchor:start;font-family:sans-serif;font-style:normal;font-weight:normal" x="490" y="490">
    <tspan x="490" y="490"></tspan>
  </text>
  <text font-size="12.7998" style="fill: #000000;text-anchor:start;font-family:sans-serif;font-style:normal;font-weight:normal" x="490" y="490">
    <tspan x="490" y="490"></tspan>
  </text>
  <g>
    <rect style="fill: #e5e5e5" x="260" y="520" width="40" height="38"/>
    <rect style="fill: none; fill-opacity:0; stroke-width: 2; stroke: #000000" x="260" y="520" width="40" height="38"/>
    <text font-size="12.7998" style="fill: #000000;text-anchor:middle;font-family:sans-serif;font-style:normal;font-weight:normal" x="280" y="544.7">
      <tspan x="280" y="544.7">C</tspan>
    </text>
  </g>
  <g>
    <rect style="fill: #e5e5e5" x="320" y="520" width="40" height="38"/>
    <rect style="fill: none; fill-opacity:0; stroke-width: 2; stroke: #000000" x="320" y="520" width="40" height="38"/>
    <text font-size="12.7998" style="fill: #000000;text-anchor:middle;font-family:sans-serif;font-style:normal;font-weight:normal" x="340" y="544.7">
      <tspan x="340" y="544.7">C</tspan>
    </text>
  </g>
  <g>
    <rect style="fill: #e5e5e5" x="380" y="520" width="40" height="38"/>
    <rect style="fill: none; fill-opacity:0; stroke-width: 2; stroke: #000000" x="380" y="520" width="40" height="38"/>
    <text font-size="12.7998" style="fill: #000000;text-anchor:middle;font-family:sans-serif;font-style:normal;font-weight:normal" x="400" y="544.7">
      <tspan x="400" y="544.7">C</tspan>
    </text>
  </g>
  <g>
    <rect style="fill: #e5e5e5" x="440" y="520" width="40" height="38"/>
    <rect style="fill: none; fill-opacity:0; stroke-width: 2; stroke: #000000" x="440" y="520" width="40" height="38"/>
    <text font-size="12.7998" style="fill: #000000;text-anchor:middle;font-family:sans-serif;font-style:normal;font-weight:normal" x="460" y="544.7">
      <tspan x="460" y="544.7">C</tspan>
    </text>
  </g>
  <g>
    <rect style="fill: #e5e5e5" x="500" y="520" width="40" height="38"/>
    <rect style="fill: none; fill-opacity:0; stroke-width: 2; stroke: #000000" x="500" y="520" width="40" height="38"/>
    <text font-size="12.7998" style="fill: #000000;text-anchor:middle;font-family:sans-serif;font-style:normal;font-weight:normal" x="520" y="544.7">
      <tspan x="520" y="544.7">C</tspan>
    </text>
  </g>
  <g>
    <rect style="fill: #e5e5e5" x="560" y="520" width="40" height="38"/>
    <rect style="fill: none; fill-opacity:0; stroke-width: 2; stroke: #000000" x="560" y="520" width="40" height="38"/>
    <text font-size="12.7998" style="fill: #000000;text-anchor:middle;font-family:sans-serif;font-style:normal;font-weight:normal" x="580" y="544.7">
      <tspan x="580" y="544.7">C</tspan>
    </text>
  </g>
  <g>
    <rect style="fill: #e5e5e5" x="620" y="520" width="40" height="38"/>
    <rect style="fill: none; fill-opacity:0; stroke-width: 2; stroke: #000000" x="620" y="520" width="40" height="38"/>
    <text font-size="12.7998" style="fill: #000000;text-anchor:middle;font-family:sans-serif;font-style:normal;font-weight:normal" x="640" y="544.7">
      <tspan x="640" y="544.7">C</tspan>
    </text>
  </g>
  <g>
    <rect style="fill: #e5e5e5" x="680" y="520" width="40" height="38"/>
    <rect style="fill: none; fill-opacity:0; stroke-width: 2; stroke: #000000" x="680" y="520" width="40" height="38"/>
    <text font-size="12.7998" style="fill: #000000;text-anchor:middle;font-family:sans-serif;font-style:normal;font-weight:normal" x="700" y="544.7">
      <tspan x="700" y="544.7">C</tspan>
    </text>
  </g>
  <g>
    <line style="fill: none; fill-opacity:0; stroke-width: 2; stroke: #000000" x1="340" y1="399.019" x2="340" y2="270.718"/>
    <polygon style="fill: #000000" points="340,263.218 345,273.218 340,270.718 335,273.218 "/>
    <polygon style="fill: none; fill-opacity:0; stroke-width: 2; stroke: #000000" points="340,263.218 345,273.218 340,270.718 335,273.218 "/>
  </g>
  <g>
    <line style="fill: none; fill-opacity:0; stroke-width: 2; stroke: #000000" x1="593.528" y1="399.019" x2="394.573" y2="266.382"/>
    <polygon style="fill: #000000" points="388.333,262.222 399.427,263.609 394.573,266.382 393.88,271.929 "/>
    <polygon style="fill: none; fill-opacity:0; stroke-width: 2; stroke: #000000" points="388.333,262.222 399.427,263.609 394.573,266.382 393.88,271.929 "/>
  </g>
  <text font-size="12.7998" style="fill: #000000;text-anchor:start;font-family:sans-serif;font-style:normal;font-weight:normal" x="340" y="230">
    <tspan x="340" y="230"></tspan>
  </text>
  <text font-size="12.7998" style="fill: #000000;text-anchor:start;font-family:sans-serif;font-style:normal;font-weight:normal" x="700" y="200">
    <tspan x="700" y="200"></tspan>
  </text>
  <g>
    <line style="fill: none; fill-opacity:0; stroke-width: 2; stroke: #000000" x1="420.933" y1="430" x2="549.331" y2="430"/>
    <polygon style="fill: #000000" points="556.831,430 546.831,435 549.331,430 546.831,425 "/>
    <polygon style="fill: none; fill-opacity:0; stroke-width: 2; stroke: #000000" points="556.831,430 546.831,435 549.331,430 546.831,425 "/>
  </g>
  <text font-size="12.7998" style="fill: #000000;text-anchor:start;font-family:sans-serif;font-style:normal;font-weight:normal" x="600" y="80">
    <tspan x="600" y="80"></tspan>
  </text>
  <text font-size="12.7998" style="fill: #000000;text-anchor:start;font-family:sans-serif;font-style:normal;font-weight:normal" x="464.158" y="183.326">
    <tspan x="464.158" y="183.326">Watch:</tspan>
    <tspan x="464.158" y="199.326">- Pods</tspan>
    <tspan x="464.158" y="215.326">- Services</tspan>
  </text>
  <text font-size="12.7998" style="fill: #000000;text-anchor:start;font-family:sans-serif;font-style:normal;font-weight:normal" x="480" y="320">
    <tspan x="480" y="320">Watch pods</tspan>
  </text>
  <text font-size="12.7998" style="fill: #000000;text-anchor:start;font-family:sans-serif;font-style:normal;font-weight:normal" x="480" y="420">
    <tspan x="480" y="420">CNI</tspan>
  </text>
  <text font-size="12.7998" style="fill: #000000;text-anchor:start;font-family:sans-serif;font-style:normal;font-weight:normal" x="970" y="410">
    <tspan x="970" y="410"></tspan>
  </text>
  <g>
    <rect style="fill: #ffc0cb" x="880" y="200" width="160" height="60"/>
    <rect style="fill: none; fill-opacity:0; stroke-width: 2; stroke: #000000" x="880" y="200" width="160" height="60"/>
    <text font-size="12.7998" style="fill: #000000;text-anchor:middle;font-family:sans-serif;font-style:normal;font-weight:normal" x="960" y="235.7">
      <tspan x="960" y="235.7">neutron-api</tspan>
    </text>
  </g>
  <g>
    <rect style="fill: #ffc0cb" x="880" y="300" width="160" height="60"/>
    <rect style="fill: none; fill-opacity:0; stroke-width: 2; stroke: #000000" x="880" y="300" width="160" height="60"/>
    <text font-size="12.7998" style="fill: #000000;text-anchor:middle;font-family:sans-serif;font-style:normal;font-weight:normal" x="960" y="335.7">
      <tspan x="960" y="335.7">octavia-api</tspan>
    </text>
  </g>
  <g>
    <line style="fill: none; fill-opacity:0; stroke-width: 2; stroke: #000000" x1="720.977" y1="230" x2="869.287" y2="230"/>
    <polygon style="fill: #000000" points="876.787,230 866.787,235 869.287,230 866.787,225 "/>
    <polygon style="fill: none; fill-opacity:0; stroke-width: 2; stroke: #000000" points="876.787,230 866.787,235 869.287,230 866.787,225 "/>
  </g>
  <g>
    <line style="fill: none; fill-opacity:0; stroke-width: 2; stroke: #000000" x1="720.977" y1="255.305" x2="869.731" y2="301.791"/>
    <polygon style="fill: #000000" points="876.889,304.028 865.853,305.818 869.731,301.791 868.836,296.273 "/>
    <polygon style="fill: none; fill-opacity:0; stroke-width: 2; stroke: #000000" points="876.889,304.028 865.853,305.818 869.731,301.791 868.836,296.273 "/>
  </g>
  <g>
    <line style="fill: none; fill-opacity:0; stroke-width: 2; stroke: #000000" x1="640" y1="460.989" x2="640" y2="509.465"/>
    <polygon style="fill: #000000" points="640,516.965 635,506.965 640,509.465 645,506.965 "/>
    <polygon style="fill: none; fill-opacity:0; stroke-width: 2; stroke: #000000" points="640,516.965 635,506.965 640,509.465 645,506.965 "/>
  </g>
  <text font-size="12.7998" style="fill: #000000;text-anchor:start;font-family:sans-serif;font-style:normal;font-weight:normal" x="464.158" y="251.684">
    <tspan x="464.158" y="251.684">Annotate</tspan>
  </text>
</svg>
