<?xml version="1.0" encoding="UTF-8" standalone="no"?>
<!DOCTYPE svg PUBLIC "-//W3C//DTD SVG 1.0//EN" "http://www.w3.org/TR/2001/PR-SVG-20010719/DTD/svg10.dtd">
<svg width="18cm" height="13cm" viewBox="198 98 343 248" xmlns="http://www.w3.org/2000/svg" xmlns:xlink="http://www.w3.org/1999/xlink">
  <g>
    <rect style="fill: #ffffff" x="280" y="160" width="176.25" height="185.667"/>
    <rect style="fill: none; fill-opacity:0; stroke-width: 2; stroke: #000000" x="280" y="160" width="176.25" height="185.667"/>
    <text font-size="16.9333" style="fill: #000000;text-anchor:middle;font-family:Overpass;font-style:normal;font-weight:normal" x="368.125" y="195.4">
      <tspan x="368.125" y="195.4"></tspan>
      <tspan x="368.125" y="216.567"></tspan>
      <tspan x="368.125" y="237.733"></tspan>
      <tspan x="368.125" y="258.9"></tspan>
      <tspan x="368.125" y="280.067"></tspan>
      <tspan x="368.125" y="301.233"></tspan>
      <tspan x="368.125" y="322.4">CONTAINER NET NS</tspan>
    </text>
  </g>
  <g>
    <rect style="fill: #0086c8" x="200" y="100" width="340" height="45"/>
    <rect style="fill: none; fill-opacity:0; stroke-width: 2; stroke: #7c7c7c" x="200" y="100" width="340" height="45"/>
    <text font-size="16.9333" style="fill: #000000;text-anchor:middle;font-family:Overpass;font-style:normal;font-weight:normal" x="370" y="128.567">
      <tspan x="370" y="128.567">Network</tspan>
    </text>
  </g>
  <g>
    <rect style="fill: #e4e4e4" x="340" y="200" width="60" height="60"/>
    <rect style="fill: none; fill-opacity:0; stroke-width: 2; stroke: #7c7c7c" x="340" y="200" width="60" height="60"/>
    <text font-size="16.9333" style="fill: #000000;text-anchor:middle;font-family:Overpass;font-style:normal;font-weight:normal" x="370" y="236.067">
      <tspan x="370" y="236.067">vif</tspan>
    </text>
  </g>
  <text font-size="12.7998" style="fill: #0086c8;text-anchor:start;font-family:sans-serif;font-style:normal;font-weight:normal" x="370" y="230">
    <tspan x="370" y="230"></tspan>
  </text>
  <text font-size="12.7998" style="fill: #0086c8;text-anchor:start;font-family:sans-serif;font-style:normal;font-weight:normal" x="370" y="230">
    <tspan x="370" y="230"></tspan>
    <tspan x="370" y="246"></tspan>
  </text>
  <line style="fill: none; fill-opacity:0; stroke-width: 4; stroke: #0086c8" x1="360" y1="140" x2="360" y2="200"/>
</svg>
